<svg id="Layer_1" xmlns="http://www.w3.org/2000/svg" viewBox="0 0 938.7 144.9"><style>.st0{fill:#fff}.st1{fill:#f7f7f9}</style><g id="XMLID_3_"><g id="XMLID_1_"><path id="XMLID_7_" class="st0" d="M549.8 11.7c-6.9-8.3-45.6 12.2-86.4 45.9-40.8 33.7-68.4 67.8-61.5 76.1 6.9 8.3 45.6-12.2 86.4-45.9 40.8-33.7 68.3-67.8 61.5-76.1zm-67.2 69.1c-30.4 24.8-59.1 39.9-64 33.8-5-6.1 15.7-31.1 46-55.9 30.4-24.8 59.1-39.9 64-33.8 5.1 6.1-15.6 31.1-46 55.9z"/><g id="XMLID_9_"><path id="XMLID_10_" class="st0" d="M446 118.5l13-8.9 16.6-12.5 26.2-21 15.4-14.4 15.2-16C522.7 24.2 501.1 9.2 476 9.2c-34.1 0-61.8 27.6-61.8 61.8 0 21 10.5 39.6 26.6 50.8l5.2-3.3z"/><path id="XMLID_16_" class="st0" d="M532.4 45.8C525.8 61.5 518 73.2 512 81c-14.6 19-30 30-38.4 35.9-7.5 5.3-14.2 9.2-19.3 11.9 6.8 2.6 14.1 4 21.8 4 34.1 0 61.8-27.6 61.8-61.8-.1-9-2.1-17.5-5.5-25.2z"/></g><g id="XMLID_11_"><path id="XMLID_40_" class="st1" d="M417.2 62.4h-34"/><g id="XMLID_35_"><path id="XMLID_39_" class="st0" d="M417.2 59.9h-34c-3.2 0-3.2 5 0 5h34c3.3 0 3.3-5 0-5z"/></g></g><g id="XMLID_12_"><path id="XMLID_33_" class="st1" d="M434.9 48.6h-34"/><g id="XMLID_28_"><path id="XMLID_32_" class="st0" d="M434.9 46.1h-34c-3.2 0-3.2 5 0 5h34c3.2 0 3.2-5 0-5z"/></g></g><circle id="XMLID_13_" class="st0" cx="514.2" cy="5" r="5"/></g><g id="XMLID_44_"><path id="XMLID_45_" class="st0" d="M56.4 92.6h-33l-6.9 19.9H1.1l32.2-85.3h13.3l32.3 85.3H63.4l-7-19.9zm-28.9-12h24.7L39.9 45.2 27.5 80.6z"/><path id="XMLID_48_" class="st0" d="M151.1 90.4c0-3.8-1.3-6.6-4-8.7-2.6-2-7.4-4.1-14.3-6.2-6.9-2.1-12.3-4.4-16.4-6.9-7.8-4.9-11.7-11.2-11.7-19.1 0-6.9 2.8-12.5 8.4-17 5.6-4.5 12.9-6.7 21.8-6.7 5.9 0 11.2 1.1 15.9 3.3 4.6 2.2 8.3 5.3 11 9.3 2.7 4 4 8.5 4 13.4H151c0-4.5-1.4-7.9-4.2-10.5-2.8-2.5-6.8-3.8-12-3.8-4.8 0-8.6 1-11.3 3.1-2.7 2.1-4 5-4 8.7 0 3.1 1.4 5.7 4.3 7.8 2.9 2.1 7.7 4.1 14.3 6.1 6.6 2 12 4.2 16 6.7s7 5.4 8.8 8.7c1.9 3.3 2.8 7.1 2.8 11.5 0 7.1-2.7 12.8-8.2 17-5.4 4.2-12.8 6.3-22.2 6.3-6.2 0-11.8-1.1-17-3.4-5.2-2.3-9.2-5.4-12.1-9.5-2.9-4-4.3-8.7-4.3-14.1H117c0 4.8 1.6 8.6 4.8 11.3 3.2 2.7 7.8 4 13.8 4 5.2 0 9-1 11.6-3.1 2.6-2 3.9-4.7 3.9-8.2z"/><path id="XMLID_50_" class="st0" d="M258.6 39.1H232v73.4h-14.7V39.1h-26.4v-12h67.7v12z"/><path id="XMLID_52_" class="st0" d="M319.1 79.6h-16.5v32.8h-14.8V27.1h30c9.8 0 17.4 2.2 22.8 6.6 5.4 4.4 8 10.8 8 19.2 0 5.7-1.4 10.5-4.1 14.3-2.8 3.9-6.6 6.8-11.5 8.9l19.2 35.5v.8h-15.9l-17.2-32.8zm-16.5-11.9h15.2c5 0 8.9-1.3 11.7-3.8 2.8-2.5 4.2-6 4.2-10.3 0-4.6-1.3-8.1-3.9-10.6-2.6-2.5-6.5-3.8-11.6-3.9h-15.6v28.6z"/></g><g id="XMLID_14_"><path id="XMLID_55_" class="st0" d="M628.3 90.4c0-3.8-1.3-6.6-4-8.7-2.6-2-7.4-4.1-14.3-6.2-6.9-2.1-12.3-4.4-16.4-6.9-7.8-4.9-11.7-11.2-11.7-19.1 0-6.9 2.8-12.5 8.4-17 5.6-4.5 12.9-6.7 21.8-6.7 5.9 0 11.2 1.1 15.9 3.3 4.6 2.2 8.3 5.3 11 9.3 2.7 4 4 8.5 4 13.4h-14.8c0-4.5-1.4-7.9-4.2-10.5-2.8-2.5-6.8-3.8-12-3.8-4.8 0-8.6 1-11.3 3.1-2.7 2.1-4 5-4 8.7 0 3.1 1.4 5.7 4.3 7.8 2.9 2.1 7.7 4.1 14.3 6.1 6.6 2 12 4.2 16 6.7s7 5.4 8.8 8.7c1.9 3.3 2.8 7.1 2.8 11.5 0 7.1-2.7 12.8-8.2 17-5.4 4.2-12.8 6.3-22.2 6.3-6.2 0-11.8-1.1-17-3.4-5.2-2.3-9.2-5.4-12.1-9.5-2.9-4-4.3-8.7-4.3-14.1h14.8c0 4.8 1.6 8.6 4.8 11.3 3.2 2.7 7.8 4 13.8 4 5.2 0 9-1 11.6-3.1 2.9-2 4.2-4.7 4.2-8.2z"/><path id="XMLID_57_" class="st0" d="M742.2 72c0 8.4-1.4 15.7-4.3 22-2.9 6.3-7 11.2-12.4 14.5-5.4 3.4-11.6 5.1-18.5 5.1s-13.1-1.7-18.5-5.1c-5.4-3.4-9.6-8.2-12.5-14.4-3-6.2-4.4-13.5-4.5-21.6v-4.8c0-8.3 1.5-15.7 4.4-22 2.9-6.4 7.1-11.2 12.5-14.6 5.4-3.4 11.5-5.1 18.5-5.1s13.1 1.7 18.5 5 9.5 8.1 12.5 14.4 4.4 13.6 4.5 21.9V72zm-14.8-4.5c0-9.5-1.8-16.7-5.4-21.7s-8.6-7.6-15.2-7.6c-6.4 0-11.4 2.5-15 7.5-3.6 5-5.5 12.1-5.5 21.3v5c0 9.4 1.8 16.6 5.5 21.7 3.7 5.1 8.7 7.7 15.2 7.7 6.6 0 11.6-2.5 15.1-7.5s5.3-12.3 5.3-21.9v-4.5z"/><path id="XMLID_60_" class="st0" d="M824.1 76.3h-34.3v36.2H775V27.1h54.2v12h-39.4v25.4h34.3v11.8z"/><path id="XMLID_62_" class="st0" d="M921.7 39.1h-26.6v73.4h-14.7V39.1H854v-12h67.7v12z"/></g></g></svg>