<svg id="Layer_1" xmlns="http://www.w3.org/2000/svg" viewBox="0 0 69.7 46.4">
  <style>
    .st0{fill:#424143}
  </style>
  <g>
    <path class="st0" d="M52.3 26.8c.8-2.5 1.1-5.2.8-7.7 3-1.9 5.8-3.7 8.2-5.4 9.6-7 8.5-9.3 8.2-10-.5-.9-1.5-1.4-3.3-1.4H65.4h-.1c-3.7.3-9.8 2-17.3 5-.1 0-.1 0-.2.1s-.3.1-.4.2c-3.4-3.2-7.8-5-12.6-5-2.9 0-5.7.7-8.3 2-4.4 2.2-7.7 6-9.2 10.7-.8 2.5-1.1 5.2-.8 7.8-.4.2-.7.5-1.1.7-.3.2-.7.4-1 .6-.5.3-1.1.7-1.6 1-.1.1-.3.2-.4.3-2.9 1.9-5.9 4.1-8.2 6.1-5 4.4-4.2 6-3.9 6.6.5.9 1.6 1.4 3.3 1.4 3.7 0 10.5-2 18.8-5.3 3.3 3.1 7.8 4.9 12.5 4.9 2.9 0 5.7-.7 8.3-2 4.3-2.1 7.6-5.9 9.1-10.6zm2.4-16.1H55.5c-.2.3-.8 1.3-3.6 3.4-.2-.4-.4-.9-.6-1.3-.2-.4-.4-.8-.7-1.3 2.1-.6 3.4-.8 4.1-.8zm-35.8 5.1c1.4-4.3 4.4-7.7 8.4-9.8 2.4-1.2 4.9-1.8 7.5-1.8 4.3 0 8.4 1.6 11.4 4.5l.4.3c.4.4.8.8 1.1 1.2.3.4.7.8 1 1.3l.1.1c.4.6.8 1.2 1.1 1.9.3.5.5 1 .7 1.6-.2.1-.3.2-.5.4-3.7 2.5-8.6 5.4-14 8.1-5.7 2.9-11.3 5.2-15.4 6.6l-.9-1.5c-.4-.8-.7-1.6-1-2.4-.1-.4-.2-.7-.3-1.1 0-.2-.1-.3-.1-.5-.1-.4-.2-.8-.2-1.2-.4-2.6-.2-5.2.7-7.7zm-4.5 15.6h-.1c.2-.3.8-1.3 3.6-3.4.2.4.4.9.6 1.3.2.4.5.8.7 1.3-1.9.6-3.4.9-4.3.9-.3-.1-.4-.1-.5-.1zM3.6 38.2c-1.2 0-1.8-.3-1.9-.5-.3-.6.9-3.1 7.7-8 .6-.4 1.2-.8 1.8-1.3 0 0 .1 0 .1-.1l1.8-1.2c.1-.1.2-.1.3-.2.5-.3 1.1-.7 1.6-1 .2-.1.4-.3.6-.4.4-.3.9-.5 1.3-.8 0 .1.1.2.1.3l.3 1.2v.2c-.9.6-1.6 1.2-2.2 1.7-.2.2-.4.3-.5.5-.2.1-.3.3-.4.4l-.1.1c-.1.1-.2.2-.3.4 0 0 0 .1-.1.1-.1.1-.2.2-.2.3l-.1.1c-.1.1-.1.2-.2.2l-.1.1c0 .1-.1.1-.1.2 0 0 0 .1-.1.1 0 .1-.1.1-.1.2s0 .1-.1.2v1.1c0 .1 0 .1.1.2.3.6 1 .9 2 .9 3.5 0 12.3-3.3 22-8.2 5.7-2.9 11-5.9 14.7-8.6 5.6-3.9 5.9-5.4 5.4-6.4-.3-.6-1-.9-2-.9H53.5c-.1 0-.3 0-.4.1h-.2c-.2 0-.3.1-.5.1h-.2c-.2 0-.4.1-.7.2h-.1c-.6.1-1.1.3-1.8.5l-.1-.1c-.3-.5-.7-.9-1.1-1.3 7.9-3.1 14.2-4.9 17.5-4.9 1.2 0 1.8.3 1.9.5.3.6-.9 3.1-7.7 8-5.8 4.3-14 9.1-23 13.6C22.8 33.3 9.2 38.2 3.6 38.2zm38.8-2.1c-2.4 1.2-4.9 1.8-7.5 1.8-4.1 0-7.9-1.5-10.9-4 4.4-1.8 9.2-4 14.1-6.5 4.8-2.4 9.4-5 13.6-7.4.1 2.1-.1 4.3-.8 6.3-1.5 4.3-4.5 7.8-8.5 9.8z"/>
    <path class="st0" d="M8.3 35.4c-.3 0-.5 0-.8-.1-.2 0-.4-.1-.5-.2V35v-.3c.1-.2.2-.4.4-.7.3-.5.7-.9 1.1-1.3l1.2-1.2c.4-.4.8-.7 1.2-1.1.4-.3.7-.7 1.1-1 .7-.6 1.2-1.1 1.6-1.4l.6-.6s-.3.1-.7.4c-.5.3-1.1.6-1.8 1.2-.4.3-.8.5-1.2.8-.4.3-.8.6-1.3 1-.4.4-.9.8-1.3 1.2-.5.6-.9 1-1.3 1.6-.2.3-.3.6-.5.9-.1.2-.1.4-.1.6 0 .2.1.5.3.7.3.4.7.4 1 .5h.9c.6 0 1.1-.1 1.6-.2s1-.2 1.4-.4c.9-.3 1.6-.5 2-.7.2-.1.4-.2.6-.2.1-.1.2-.1.2-.1s-1.2.2-2.9.5c-.8.1-1.8.2-2.8.2z"/>
    <path class="st0" d="M59.5 7.1c.6 0 1.2-.1 1.7-.1.3 0 .5 0 .7.1.1 0 .2.1.2.1.1 0 .1.1.1.1 0 .1 0 .3-.1.5s-.2.4-.4.6c-.6.8-1.4 1.6-2 2.2-1.3 1.2-2.1 2-2.1 2s.1 0 .2-.1.3-.2.5-.3c.4-.3 1.1-.7 1.8-1.2.4-.3.7-.6 1.1-.9.4-.3.8-.7 1.2-1.2.2-.2.4-.5.5-.8.1-.3.3-.6.2-1.1 0-.2-.2-.5-.4-.6-.2-.1-.4-.2-.5-.3-.3-.1-.7-.2-1-.2-.6 0-1.3 0-1.8.1-.6.1-1.2.2-1.7.3-.5.1-1.1.3-1.6.4-.5.1-1 .3-1.4.4-.8.3-1.5.6-2 .8-.4.5-.7.6-.7.6s.3-.1.8-.2 1.2-.3 2.1-.4c.4-.1.9-.2 1.4-.3.5-.1 1-.2 1.6-.3.5 0 1.1-.1 1.6-.2z"/>
    <path class="st0" d="M5.4 5.7c.6.2 1.4.3 2.2.4.1.9.2 1.8.4 2.5.2.4.3.8.4 1.1.1.3.2.4.2.4s.1-.1.2-.4c.1-.3.3-.7.4-1.1.2-.7.3-1.6.4-2.5.8-.1 1.6-.2 2.3-.4.4-.1.8-.3 1.1-.4.3-.1.4-.2.4-.2s-.2-.1-.5-.2-.6-.3-1.1-.4c-.6-.3-1.4-.4-2.2-.5-.1-.9-.2-1.7-.4-2.4-.1-.5-.3-.9-.4-1.2L8.6 0l-.2.4c-.1.3-.2.7-.4 1.2-.2.7-.3 1.5-.4 2.4-.8.1-1.6.2-2.2.4-.5.2-.8.3-1.1.5l-.4.2s.1.1.4.2c.3.1.6.3 1.1.4z"/>
    <path class="st0" d="M66 31.1c-.6-.2-1.4-.3-2.3-.4-.1-.9-.2-1.8-.4-2.4-.1-.5-.3-.9-.4-1.1-.1-.3-.2-.4-.2-.4l-.2.4c-.1.3-.3.7-.4 1.1-.2.7-.3 1.5-.4 2.4-.8.1-1.6.2-2.3.4-.4.1-.8.3-1.1.4-.3.1-.4.2-.4.2s.1.1.4.2c.3.1.6.3 1.1.4.6.2 1.4.3 2.3.4.1.9.2 1.8.4 2.4.1.5.3.9.4 1.1.1.3.2.4.2.4l.2-.4c.1-.3.3-.7.4-1.1.2-.7.3-1.5.4-2.4.8-.1 1.6-.2 2.3-.4.4-.1.8-.3 1.1-.4.3-.1.4-.2.4-.2s-.1-.1-.4-.2c-.3-.1-.7-.3-1.1-.4z"/>
    <path class="st0" d="M52.9 42.3c-.5-.1-1-.3-1.6-.3 0-.6-.1-1.3-.3-1.8-.1-.3-.2-.6-.3-.8-.1-.2-.1-.3-.1-.3s-.1.1-.1.3c-.1.2-.2.5-.3.8-.1.5-.2 1.1-.3 1.8-.6 0-1.2.2-1.6.3-.3.1-.6.2-.8.3-.2.1-.3.2-.3.2s.1.1.3.2c.2.1.4.2.8.3.5.1 1 .2 1.6.3 0 .6.1 1.3.3 1.8.1.3.2.6.3.8.1.2.1.3.1.3s.1-.1.1-.3c.1-.2.2-.5.3-.8.1-.5.2-1.1.3-1.8.6 0 1.2-.2 1.6-.3.3-.1.6-.2.8-.3.2-.1.3-.2.3-.2s-.1-.1-.3-.2c-.2-.1-.4-.3-.8-.3z"/>
  </g>
</svg>
