<svg id="Layer_1" xmlns="http://www.w3.org/2000/svg" viewBox="0 0 45.9 62.7">
  <style>
    .st0{fill:#424143}
  </style>
  <g>
    <path class="st0" d="M45 53.8l-9.9-13.7V27.7c0-2.8-1.9-5.1-4.4-5.8v-4.4C30.6 9.2 27.5 0 22.9 0c-4.5 0-7.7 9.2-7.7 17.5v4.4c-2.5.7-4.4 3-4.4 5.8v12.4L.9 53.8C0 55-.2 56.1.2 56.9c.2.4.7 1 1.9 1h8.7V60h3.3l-1.5 2c-.2.2-.2.4-.1.6 0 .1.1.2.4.2h7.8c.2 0 .3-.1.4-.2.1-.2 0-.3-.1-.6l-1.5-1.9h3.3V27.7c0-3.3-2.7-6-6-6h-.2v-4.2c0-4.1.8-8.2 1.9-11.1 1.4.1 2.9.2 4.4.2 1.5 0 3-.1 4.4-.2 1.2 3 1.9 7 1.9 11.1v4.2H29c-3.3 0-6 2.7-6 6v32.4h3.3L24.9 62c-.2.2-.2.4-.1.6 0 .1.1.2.4.2H33c.2 0 .3-.1.4-.2.1-.2 0-.3-.1-.6l-1.5-1.9h3.3V58h8.7c1.2 0 1.8-.6 1.9-1 .4-.9.1-2-.7-3.2zM21.4 38.7c-3-.8-6.2-.8-9.2 0v-2c3-.9 6.2-.9 9.2 0v2zM2.1 56.6c-.2 0-.6 0-.7-.3-.1-.3 0-.9.6-1.7l8.8-12.2v14.1H2.1zm10.1 2.1v-18c3-.9 6.2-.9 9.2 0v18h-9.2zm9.2-31v7.1c-3-.8-6.2-.8-9.2 0v-7.1c0-2.5 2.1-4.6 4.6-4.6 2.5 0 4.6 2.1 4.6 4.6zm3.1 9.1c3-.9 6.2-.9 9.2 0v2c-3-.8-6.2-.8-9.2 0v-2zm4.6-13.7c2.5 0 4.6 2.1 4.6 4.6v7.1c-3-.8-6.2-.8-9.2 0v-7.1c0-2.5 2.1-4.6 4.6-4.6zm-4.6 35.6v-18c3-.9 6.2-.9 9.2 0v18h-9.2zm19.9-2.4c-.1.2-.5.3-.7.3H35V42.5l8.8 12.2c.6.7.8 1.3.6 1.6z"/>
    <path class="st0" d="M27.5 10.5c-2.7-1.8-6.3-1.8-9 0V14c2.7-1.8 6.3-1.8 9 0v-3.5z"/>
  </g>
</svg>
