<svg id="Layer_1" xmlns="http://www.w3.org/2000/svg" viewBox="0 0 52.5 55">
  <style>
    .st0{fill:#424143}
  </style>
  <g>
    <path class="st0" d="M52 5.3c-.9-2-2.6-3.5-4.5-3.9-1-.9-2.1-1.4-3.1-1.4-.4 0-.8.1-1.1.2l-2.9 1.3c-1 .4-1.6 1.4-1.9 2.7L20.6 12c-.7-.4-1.4-.7-2.1-.7-.4 0-.8.1-1.1.2l-2.9 1.3c-1.4.6-2 2.2-2 4.3l-.4.2c-.5-.3-1.1-.5-1.6-.5-.3 0-.6.1-.9.2l-2.2 1c-.9.4-1.5 1.4-1.6 2.9v.4l-.9.4c-.4-.2-.8-.4-1.2-.4-.3 0-.5.1-.7.2l-1.6.7c-.8.3-1.2 1.1-1.3 2.3-.1 1 .2 2.2.7 3.3.9 2.1 2.4 3.5 3.8 3.5.3 0 .5-.1.7-.2l1.6-.7c.6-.3 1-.8 1.2-1.6l.9-.4c.9.8 1.8 1.2 2.6 1.2.3 0 .6-.1.9-.2l2.2-1c.8-.3 1.2-1.1 1.5-2l.4-.2c1.1 1.1 2.3 1.7 3.4 1.7.4 0 .8-.1 1.1-.2l2.9-1.3c1-.4 1.6-1.4 1.9-2.7l.3-.1v5.6c-2.4.1-5.4.4-5.4 1.7v1.7c0 .6.6 1 1.6 1.2L16.1 48c-1.4.1-2.5.8-2.5 1.7 0 1 1.2 1.8 2.8 1.8 1.6 0 2.8-.8 2.8-1.8 0-.6-.4-1.1-1.1-1.4l2.4-5.4 5.9 1.7v6.9c-1.1.2-1.8.9-1.8 1.7 0 1 1.2 1.8 2.8 1.8 1.6 0 2.8-.8 2.8-1.8 0-.8-.7-1.4-1.8-1.7v-6.9l6.2-1.7 2.4 5.4c-.7.3-1.1.8-1.1 1.4 0 1 1.2 1.8 2.8 1.8s2.8-.8 2.8-1.8c0-.9-1.1-1.7-2.5-1.7l-6.2-14.1c.8-.3 1.3-.6 1.3-1.1V31c0-1.2-3-1.6-5.4-1.7v-6.2c0-.2 0-.3-.1-.5l15-6.6c.7.4 1.4.7 2.1.7.4 0 .8-.1 1.1-.2l2.9-1.3c1.3-.6 2-2 2-3.9 1-1.7 1.2-3.9.3-6zM20.9 41.8l3.3-7.5c.7.1 1.4.1 2.1.1v9l-5.4-1.6zm13.1 0l-5.7 1.6v-9c.8 0 1.6-.1 2.4-.2l3.3 7.6zm16.8-36c1.1 2.4.4 5.1-1.5 6.2 0 0-.1 0-.1.1-.9.3-2.8-1-4-3.8-1.2-2.6-1-5-.1-5.5h.1c.4-.1.7-.2 1.1-.2 1.9-.1 3.7 1.2 4.5 3.2zm-5.5-4.3c-.1 0-.2 0-.4.1-.1 0-.2.1-.3.1h-.1-.1c-.1 0-.1.1-.1.1-1.5 1-1.7 3.9-.4 7 1.2 2.7 3.1 4.5 4.8 4.5.2 0 .4 0 .6-.1h.4c.1 0 .2-.1.3-.1.1-.1.2-.1.3-.2-.2.6-.6 1.1-1 1.3-.2.1-.4.1-.6.1-1.7 0-3.9-2.2-5.2-5.2-1.7-3.8-1.2-7.1.2-7.7.2-.1.4-.1.6-.1.3-.1.6 0 1 .2zM19.1 12.6c-.9.5-1.4 1.5-1.5 2.9-.1 1.3.2 2.9.9 4.4 1.2 2.7 3.3 4.6 5 4.6.3 0 .5-.1.8-.1-.2.4-.5.8-.9.9-.2.1-.4.1-.6.1-1.7 0-3.9-2.2-5.2-5.2-1.7-3.8-1.2-7.1.2-7.7.2-.1.4-.1.6-.1.3.1.5.1.7.2zm-5.5 9.5c.5 1.2 1.2 2.4 2 3.3l-.7.3c-.7.3-2.2-.8-3.1-2.8-.9-2-.7-3.8 0-4.1l.7-.3c.2 1.1.6 2.3 1.1 3.6zm-2.8 1.2c.9 2.1 2.5 3.6 3.9 3.6-.1.2-.3.4-.5.5-.1.1-.3.1-.4.1-1 0-2.7-1.3-3.8-3.8-.6-1.3-.8-2.6-.8-3.8.1-1 .4-1.6.9-1.8.1-.1.3-.1.4-.1h.3c-.4.4-.6 1.1-.7 1.9-.1 1 .2 2.2.7 3.4zm-4.1 1.8c.4.9.9 1.7 1.4 2.3l-.9.4h-.1c-.5 0-1.4-.8-2-2.1-.3-.7-.5-1.5-.4-2.1 0-.4.2-.8.4-.9l.9-.4c.1 1 .3 1.9.7 2.8zM4 26.3c.6 1.5 1.7 2.5 2.6 2.7l-.2.2c-.7.3-2.1-.8-2.9-2.7-.4-.9-.6-1.9-.6-2.8 0-.7.3-1.1.6-1.3H3.8c-.2.3-.3.7-.3 1.2-.1.9.1 1.8.5 2.7zm23.1-4.4c-.2 0-.3.1-.5.2L24 23.3c-.1.1-.3.1-.4.1-1.1 0-2.8-1.4-3.9-3.9-.6-1.3-.9-2.7-.8-3.9.1-1 .4-1.7.9-1.9l18.5-8.1c0 1.5.4 3.4 1.2 5.2.8 1.8 1.9 3.3 3.1 4.4l-15.5 6.7z"/>
    <path class="st0" d="M45.9 4.7c1.2-.8 2.6-.6 3.6.4-.8-1.5-2.5-2-4.1-1.5.2.4.4.7.5 1.1z"/>
    <path class="st0" d="M36.3 7.9l-15 6.4c-.3.1-.5.5-.3.8.1.2.3.4.6.4h.2l15-6.4c.3-.1.5-.5.3-.8-.1-.4-.4-.6-.8-.4z"/>
  </g>
</svg>
